<svg aria-hidden="true"  version="1.1" xmlns="http://www.w3.org/2000/svg">
<defs>
<symbol id="icon-book" viewBox="0 0 32 32" width="100%" height="100%">
<path d="M23.118 19.266l-10.769 4.456c-0.135 0.059-0.285 0.092-0.442 0.092s-0.307-0.033-0.442-0.092l-10.769-4.456c-0.408-0.166-0.696-0.566-0.696-1.034v-17.116c0-0.617 0.5-1.116 1.116-1.116 0.151 0 0.295 0.030 0.426 0.085h0.001l0.002 0.001c0.003 0.001 0.007 0.003 0.010 0.004l10.352 4.284 10.352-4.284c0.003-0.001 0.007-0.003 0.010-0.004l0.002-0.001c0.131-0.054 0.275-0.085 0.426-0.085 0.616 0 1.116 0.499 1.116 1.116v17.116c0 0.467-0.288 0.868-0.696 1.034zM10.791 6.328l-8.558-3.542v14.7l8.558 3.542v-14.7zM21.581 2.786l-8.558 3.542v14.7l8.558-3.542v-14.7zM14.794 7.914l4.093-1.86c0.141-0.064 0.297-0.1 0.462-0.1 0.616 0 1.116 0.499 1.116 1.116 0 0.452-0.269 0.84-0.654 1.016v0l-4.093 1.86c-0.141 0.065-0.298 0.1-0.462 0.1-0.616 0-1.116-0.5-1.116-1.116 0-0.452 0.269-0.841 0.654-1.017zM14.794 12.007v0l4.093-1.86c0.141-0.064 0.297-0.1 0.462-0.1 0.616 0 1.116 0.499 1.116 1.116 0 0.452-0.269 0.841-0.654 1.017l-4.093 1.86c-0.141 0.064-0.298 0.1-0.462 0.1-0.616 0-1.116-0.5-1.116-1.116 0-0.452 0.269-0.841 0.654-1.017zM14.794 16.1v0l4.093-1.86c0.141-0.064 0.297-0.1 0.462-0.1 0.616 0 1.116 0.499 1.116 1.116 0 0.452-0.269 0.84-0.654 1.016v0l-4.093 1.86c-0.141 0.065-0.298 0.1-0.462 0.1-0.616 0-1.116-0.5-1.116-1.116 0-0.452 0.269-0.841 0.654-1.017zM4.465 5.954c0.164 0 0.321 0.036 0.462 0.1v0l4.093 1.86c0.386 0.176 0.654 0.565 0.654 1.017 0 0.616-0.5 1.116-1.116 1.116-0.165 0-0.322-0.036-0.462-0.1v0l-4.093-1.86c-0.385-0.176-0.654-0.564-0.654-1.016 0-0.617 0.5-1.116 1.116-1.116zM4.465 10.046c0.164 0 0.321 0.036 0.462 0.1v0l4.093 1.86c0.386 0.176 0.654 0.565 0.654 1.017 0 0.616-0.5 1.116-1.116 1.116-0.165 0-0.322-0.036-0.462-0.1v0l-4.093-1.86c-0.385-0.176-0.654-0.564-0.654-1.017 0-0.616 0.5-1.116 1.116-1.116zM4.465 14.14c0.164 0 0.321 0.036 0.462 0.1v0l4.093 1.86c0.386 0.176 0.654 0.565 0.654 1.017 0 0.616-0.5 1.116-1.116 1.116-0.165 0-0.322-0.036-0.462-0.1v0l-4.093-1.86c-0.385-0.176-0.654-0.564-0.654-1.016 0-0.617 0.5-1.116 1.116-1.116z"></path>
</symbol>

<symbol id="icon-clock" viewBox="0 0 32 32">
<path d="M22.876 7.444c-1.179-2.751-3.384-4.956-6.134-6.134 0.744-0.586 1.68-0.938 2.701-0.938 2.414 0 4.371 1.957 4.371 4.371 0 1.020-0.352 1.956-0.938 2.701zM22.698 12.279c0 2.867-1.125 5.465-2.949 7.397l1.51 1.509c0.199 0.2 0.323 0.476 0.323 0.781 0 0.61-0.494 1.104-1.104 1.104-0.305 0-0.581-0.124-0.781-0.324l-1.621-1.621c-1.75 1.222-3.873 1.945-6.169 1.945-2.291 0-4.412-0.719-6.159-1.937l-1.61 1.61c-0.202 0.202-0.482 0.327-0.79 0.327-0.616 0-1.116-0.5-1.116-1.117 0-0.307 0.125-0.587 0.327-0.789l1.497-1.497c-1.818-1.931-2.94-4.526-2.94-7.388 0-5.959 4.831-10.791 10.791-10.791s10.791 4.831 10.791 10.791zM11.907 3.721c-4.726 0-8.558 3.831-8.558 8.558s3.832 8.558 8.558 8.558 8.558-3.832 8.558-8.558c0-4.727-3.832-8.558-8.558-8.558zM16.372 13.395h-4.465c-0.616 0-1.116-0.5-1.116-1.116v-5.954c0-0.616 0.5-1.116 1.116-1.116s1.116 0.5 1.116 1.116v4.836h3.349c0.616 0 1.116 0.5 1.116 1.117s-0.5 1.116-1.116 1.116zM0.958 7.594c-0.598-0.759-0.958-1.715-0.958-2.757 0-2.466 1.999-4.465 4.465-4.465 1.042 0 1.998 0.359 2.758 0.958-2.809 1.203-5.062 3.456-6.265 6.265z"></path>
</symbol>

<symbol id="icon-computer" viewBox="0 0 32 32">
<path d="M22.326 18.977h-7.070v1.86l1.488 1.489v0.372h-9.674v-0.372l1.488-1.489v-1.86h-7.070c-0.616 0-1.116-0.5-1.116-1.117v-14.883c0-0.617 0.5-1.116 1.116-1.116h20.837c0.616 0 1.116 0.499 1.116 1.116v14.883c0 0.617-0.5 1.117-1.116 1.117zM21.953 3.349h-20.093v12.651h20.093v-12.651zM9.674 8.558c0.308 0 0.587 0.125 0.79 0.327v0l0.699 0.699 2.187-2.187c0.202-0.202 0.482-0.327 0.79-0.327 0.616 0 1.116 0.499 1.116 1.116 0 0.308-0.125 0.587-0.327 0.79v0l-2.977 2.977c-0.202 0.202-0.482 0.327-0.79 0.327s-0.587-0.125-0.79-0.327v0l-1.488-1.489c-0.202-0.202-0.327-0.481-0.327-0.789 0-0.617 0.5-1.116 1.116-1.116z"></path>
</symbol>

<symbol id="icon-facebook" viewBox="0 0 32 32">
<path d="M19.281 0.182c0 1.349 0 3.768 0 3.768s-2.777-0.277-3.472 0.787c-0.38 0.582-0.155 2.286-0.188 3.509 1.212 0 2.471 0 3.684 0-0.311 1.43-0.534 2.399-0.763 3.637-1.049 0-2.94 0-2.94 0v11.707c0 0-3.472 0-5.104 0 0.001-3.609-0.001-7.819 0-11.661-0.793 0-1.379 0-2.171 0 0-1.35 0-2.332 0-3.683 0.769 0 1.378 0 2.148 0 0.11-2.694 0.151-5.361 1.489-6.72 1.503-1.528 2.938-1.344 7.319-1.344z"></path>
</symbol>

<symbol id="icon-glass" viewBox="0 0 32 32">
<path d="M23.089 19.977c0.397 0.397 0.644 0.948 0.644 1.556 0 1.215-0.985 2.2-2.2 2.2-0.608 0-1.157-0.247-1.556-0.645v0l-6.448-6.447c-1.309 0.773-2.832 1.225-4.463 1.225-4.86 0-8.8-3.94-8.8-8.8s3.94-8.8 8.8-8.8c4.86 0 8.8 3.94 8.8 8.8 0 1.631-0.452 3.153-1.225 4.463l6.448 6.448zM9.067 2.465c-3.645 0-6.6 2.956-6.6 6.601s2.955 6.6 6.6 6.6c3.645 0 6.6-2.955 6.6-6.6s-2.955-6.601-6.6-6.601z"></path>
</symbol>

<symbol id="icon-grapth" viewBox="0 0 32 32">
<path d="M22.698 23.814h-21.581c-0.616 0-1.116-0.5-1.116-1.116v-21.582c0-0.615 0.5-1.116 1.116-1.116h21.581c0.616 0 1.116 0.5 1.116 1.116v21.582c0 0.616-0.5 1.116-1.116 1.116zM21.581 2.233h-19.349v19.349h19.349v-19.349zM3.881 12.085v-0.002l2.977-1.859c0.17-0.105 0.37-0.165 0.584-0.165 0.231 0 0.447 0.071 0.625 0.191l0.004-0.006 4.935 3.289 5.684-4.012c0.185-0.135 0.412-0.216 0.659-0.216 0.616 0 1.116 0.5 1.116 1.116 0 0.372-0.182 0.702-0.463 0.905h0.001l-6.326 4.465c-0.183 0.133-0.409 0.211-0.653 0.211-0.239 0-0.46-0.075-0.641-0.202l-4.954-3.303-2.333 1.459c-0.179 0.123-0.397 0.195-0.63 0.195-0.616 0-1.116-0.5-1.116-1.116 0-0.403 0.213-0.755 0.532-0.951z"></path>
</symbol>

<symbol id="icon-home" viewBox="0 0 32 32">
<path d="M23.814 12.651c0 0.616-0.5 1.116-1.116 1.116-0.294 0-0.56-0.115-0.759-0.301l-0.002 0.003-10.029-10.029-10.007 10.006c-0.202 0.199-0.478 0.321-0.784 0.321-0.616 0-1.116-0.499-1.116-1.116 0-0.316 0.132-0.601 0.343-0.804l10.759-10.76c0.203-0.211 0.488-0.342 0.804-0.342v0 0c0 0 0 0 0.001 0 0.019 0 0.039 0 0.059 0.001 0.003 0 0.006 0.001 0.009 0.001 0.017 0.001 0.034 0.002 0.051 0.004 0.001 0 0.002 0 0.003 0.001 0.273 0.030 0.516 0.158 0.694 0.348l0.001-0.001 4.392 4.392v-1.026c0-0.617 0.499-1.116 1.116-1.116s1.116 0.499 1.116 1.116v3.258l4.166 4.166-0.003 0.003c0.186 0.199 0.302 0.465 0.302 0.759zM21.581 14.512v7.814c0 0.616-0.5 1.116-1.116 1.116h-2.233v-8.93h-4.465v8.93h-10.419c-0.616 0-1.116-0.5-1.116-1.116v-7.814l9.674-9.674 9.674 9.674zM10.046 14.512h-4.465v4.465h4.465v-4.465z"></path>
</symbol>

<symbol id="icon-instagram" viewBox="0 0 32 32">
<path d="M20.754 23.589h-17.554c-1.616 0-2.926-1.31-2.926-2.927v-17.553c0-1.616 1.31-2.927 2.926-2.927h17.554c1.616 0 2.926 1.31 2.926 2.927v17.553c0 1.616-1.31 2.927-2.926 2.927zM11.977 7.35c-1.825 0-3.393 1.081-4.112 2.633h-0.005c-0.007 0.016-0.013 0.034-0.020 0.050-0.043 0.096-0.080 0.195-0.117 0.293-0.017 0.048-0.037 0.095-0.052 0.143-0.034 0.102-0.061 0.206-0.087 0.311-0.013 0.048-0.027 0.097-0.038 0.146-0.024 0.111-0.040 0.223-0.056 0.336-0.006 0.046-0.016 0.091-0.021 0.137-0.016 0.159-0.027 0.321-0.027 0.486 0 2.504 2.031 4.534 4.535 4.534s4.535-2.030 4.535-4.534c0-0.165-0.010-0.326-0.026-0.486-0.006-0.047-0.015-0.091-0.021-0.137-0.016-0.113-0.032-0.226-0.056-0.336-0.011-0.049-0.026-0.098-0.038-0.146-0.026-0.105-0.053-0.208-0.087-0.311-0.016-0.048-0.035-0.094-0.052-0.143-0.037-0.099-0.074-0.197-0.117-0.293-0.007-0.016-0.013-0.034-0.020-0.050h-0.005c-0.72-1.552-2.288-2.633-4.112-2.633zM21.047 3.985c0-0.646-0.524-1.169-1.17-1.169h-2.341c-0.646 0-1.17 0.523-1.17 1.169v2.341c0 0.646 0.524 1.17 1.17 1.17h2.341c0.646 0 1.17-0.524 1.17-1.17v-2.341zM21.047 9.983h-2.158c0.166 0.606 0.256 1.244 0.256 1.903 0 3.959-3.209 7.167-7.168 7.167s-7.168-3.208-7.168-7.167c0-0.658 0.090-1.296 0.256-1.903h-2.158v9.801c0 0.647 0.524 1.171 1.17 1.171h15.799c0.646 0 1.17-0.524 1.17-1.171v-9.801z"></path>
</symbol>

<symbol id="icon-pinterest" viewBox="0 0 32 32">
<path d="M11.475 15.409c-0.191 0.762-0.384 1.56-0.583 2.341-0.197 0.77-0.37 1.551-0.656 2.258-0.475 1.171-1.077 2.303-1.868 3.219-0.526 0.61-0.414 0.367-0.572 0.334-0.121-0.026-0.131-0.144-0.154-0.315-0.129-0.931-0.041-2.007 0.006-3.053 0.055-1.192 0.305-2.183 0.539-3.174 0.443-1.887 0.865-3.737 1.312-5.636 0.029-0.126 0.11-0.335 0.082-0.407-0.203-0.528-0.335-1.001-0.392-1.555-0.067-0.635-0.016-1.229 0.127-1.776 0.253-0.967 0.835-1.824 1.732-2.138 0.571-0.197 1.202-0.108 1.586 0.121 0.395 0.237 0.666 0.61 0.793 1.139 0.135 0.562 0.036 1.235-0.073 1.729-0.244 1.114-0.565 1.951-0.857 3.026-0.144 0.533-0.308 1.081-0.173 1.657 0.124 0.528 0.4 0.892 0.774 1.166 0.389 0.283 0.85 0.438 1.486 0.416 1.123-0.039 1.903-0.757 2.424-1.434 0.835-1.083 1.339-2.545 1.531-4.284 0.061-0.561 0.107-1.206 0.064-1.841-0.080-1.174-0.447-2.118-1.030-2.85-0.554-0.698-1.34-1.252-2.297-1.564-0.948-0.309-2.26-0.412-3.426-0.213-2.119 0.363-3.613 1.567-4.494 3.23-0.461 0.87-0.765 1.872-0.765 3.118 0 0.961 0.237 1.705 0.62 2.286 0.122 0.184 0.3 0.336 0.419 0.546 0.169 0.298-0.026 0.742-0.109 1.064-0.101 0.389-0.112 0.925-0.565 0.934-0.188 0.004-0.424-0.133-0.583-0.222-1.193-0.659-1.917-1.859-2.214-3.414-0.181-0.945-0.18-2.047 0-2.96 0.174-0.884 0.497-1.699 0.857-2.36 0.744-1.374 1.835-2.473 3.162-3.258 1.020-0.603 2.171-1.027 3.572-1.231 0.464-0.068 0.945-0.096 1.467-0.121 1.525-0.071 2.911 0.274 3.955 0.741 1.102 0.493 1.981 1.148 2.725 1.962 0.766 0.837 1.324 1.809 1.677 3.025 0.185 0.633 0.364 1.309 0.364 2.091 0 0.784-0.166 1.475-0.282 2.165-0.433 2.586-1.663 4.7-3.509 5.904-0.447 0.291-0.988 0.56-1.604 0.74-0.61 0.177-1.306 0.311-2.051 0.259-0.723-0.049-1.316-0.246-1.813-0.528-0.494-0.279-0.909-0.621-1.203-1.137z"></path>
</symbol>

<symbol id="icon-shopping" viewBox="0 0 32 32">
<path d="M23.635 7.551h0.001l-3.3 7.333c-0.163 0.361-0.515 0.619-0.929 0.647v0l-9.504 0.633 0.549 1.568h10.348c1.215 0 2.2 0.985 2.2 2.201 0 1.215-0.985 2.2-2.2 2.2s-2.2-0.985-2.2-2.2h-10.267c0 1.215-0.985 2.2-2.2 2.2s-2.2-0.985-2.2-2.2c0-1.216 0.985-2.201 2.2-2.201h1.988l-4.235-12.099h-2.52c-0.608 0-1.1-0.493-1.1-1.1 0-0.608 0.492-1.1 1.1-1.1h3.3c0.48 0 0.884 0.309 1.035 0.737l0.004-0.001 0.64 1.831h16.288c0.608 0 1.1 0.492 1.1 1.1 0 0.16-0.036 0.312-0.099 0.451zM7.116 8.2l2.033 5.809 9.452-0.631 2.331-5.179h-13.816z"></path>
</symbol>

<symbol id="icon-twitter" viewBox="0 0 32 32">
<path d="M16.012 3.292c1.86-0.033 2.85 0.645 3.795 1.506 0.803-0.069 1.846-0.517 2.46-0.829 0.198-0.108 0.398-0.218 0.597-0.326-0.351 0.948-0.826 1.691-1.558 2.255-0.163 0.124-0.324 0.293-0.528 0.373 0 0.004 0 0.008 0 0.012 1.042-0.010 1.902-0.481 2.718-0.736 0 0.004 0 0.008 0 0.012-0.429 0.681-1.009 1.373-1.628 1.869-0.25 0.198-0.5 0.397-0.75 0.595 0.014 1.104-0.016 2.157-0.222 3.084-1.2 5.39-4.378 9.049-9.407 10.617-1.807 0.562-4.725 0.794-6.795 0.28-1.026-0.254-1.953-0.542-2.822-0.922-0.484-0.211-0.932-0.44-1.36-0.701-0.141-0.085-0.281-0.171-0.421-0.256 0.466 0.014 1.013 0.143 1.534 0.058 0.473-0.076 0.935-0.056 1.371-0.151 1.086-0.239 2.051-0.554 2.881-1.040 0.403-0.236 1.015-0.512 1.301-0.852-0.539 0.009-1.029-0.116-1.429-0.257-1.553-0.549-2.458-1.557-3.046-3.072 0.471 0.052 1.827 0.175 2.144-0.093-0.592-0.033-1.162-0.376-1.57-0.631-1.25-0.782-2.268-2.093-2.261-4.111 0.165 0.078 0.328 0.155 0.492 0.233 0.315 0.133 0.634 0.203 1.008 0.281 0.158 0.033 0.474 0.125 0.656 0.058-0.008 0-0.016 0-0.024 0-0.241-0.281-0.635-0.468-0.879-0.771-0.802-0.996-1.552-2.529-1.078-4.356 0.121-0.464 0.312-0.872 0.516-1.25 0.008 0.004 0.016 0.007 0.024 0.011 0.093 0.196 0.302 0.339 0.433 0.503 0.41 0.507 0.914 0.964 1.429 1.366 1.754 1.371 3.333 2.214 5.869 2.838 0.644 0.159 1.387 0.28 2.156 0.281-0.216-0.628-0.146-1.646 0.023-2.254 0.428-1.53 1.356-2.632 2.718-3.224 0.325-0.141 0.687-0.244 1.066-0.327 0.196-0.023 0.39-0.047 0.586-0.070z"></path>
</symbol>

<symbol id="icon-window" viewBox="0 0 32 32">
<path d="M22.698 23.814h-21.581c-0.617 0-1.116-0.5-1.116-1.116v-21.581c0-0.617 0.499-1.116 1.116-1.116h21.581c0.616 0 1.116 0.499 1.116 1.116v21.581c0 0.616-0.5 1.116-1.116 1.116zM21.581 2.233h-19.349v19.349h19.349v-19.349zM4.837 3.349h4.093c0.616 0 1.116 0.499 1.116 1.116s-0.5 1.116-1.116 1.116v0h-3.349v3.349c0 0.616-0.5 1.116-1.116 1.116s-1.116-0.5-1.116-1.116v0-5.581h1.488zM3.349 14.884v0c0-0.617 0.5-1.117 1.116-1.117s1.116 0.5 1.116 1.117v0 3.348l3.349 0.001c0.616 0 1.116 0.499 1.116 1.116s-0.5 1.116-1.116 1.116v0h-5.581v-5.581zM14.884 3.349v0h5.581v5.581c0 0.616-0.5 1.116-1.116 1.116s-1.116-0.5-1.116-1.116v0-3.349h-3.349c-0.616 0-1.116-0.5-1.116-1.116s0.5-1.116 1.116-1.116zM14.884 18.233v-0.001h3.349v-3.348c0-0.617 0.5-1.117 1.116-1.117s1.116 0.5 1.116 1.117v0 5.581h-5.581c-0.616 0-1.116-0.5-1.116-1.116s0.5-1.116 1.116-1.116z"></path>
</symbol>
</defs>
</svg>
